<svg xmlns="http://www.w3.org/2000/svg" width="100" height="100" viewBox="0 0 100 100"><g id="surface32355618"><path style="stroke:none;fill-rule:nonzero;fill:#ba68c8;fill-opacity:1" d="M 80.152344 47.777344 C 79.710938 47.523438 79.253906 47.300781 78.789062 47.101562 C 79.554688 46.738281 80.328125 46.347656 81.113281 45.894531 C 86.3125 42.894531 86.972656 40.039062 86.042969 38.429688 C 84.042969 34.964844 79.859375 37.722656 76.714844 32.269531 C 74.953125 29.226562 75.953125 26.957031 74.445312 24.339844 C 72.761719 21.429688 69.214844 19.277344 63.152344 22.777344 C 62.710938 23.035156 62.289062 23.316406 61.886719 23.617188 C 61.953125 22.773438 62 21.910156 62 21 C 62 15 59.859375 13 58 13 C 54 13 54.296875 18 48 18 C 44.484375 18 43.019531 16 40 16 C 36.636719 16 33 18 33 25 C 33 25.511719 33.035156 26.015625 33.09375 26.515625 C 32.398438 26.035156 31.671875 25.5625 30.886719 25.109375 C 25.6875 22.109375 22.886719 22.960938 21.957031 24.570312 C 19.957031 28.035156 24.4375 30.277344 21.285156 35.730469 C 19.527344 38.777344 17.066406 39.042969 15.554688 41.660156 C 13.871094 44.574219 13.785156 48.722656 19.847656 52.222656 C 20.289062 52.476562 20.746094 52.699219 21.210938 52.898438 C 20.445312 53.261719 19.671875 53.652344 18.886719 54.105469 C 13.6875 57.105469 13.027344 59.960938 13.957031 61.570312 C 15.957031 65.035156 20.140625 62.277344 23.285156 67.730469 C 25.046875 70.773438 24.046875 73.042969 25.554688 75.660156 C 27.238281 78.570312 30.785156 80.722656 36.847656 77.222656 C 37.289062 76.964844 37.710938 76.683594 38.113281 76.382812 C 38.046875 77.226562 38 78.089844 38 79 C 38 85 40.140625 87 42 87 C 46 87 45.703125 82 52 82 C 55.515625 82 56.980469 84 60 84 C 63.363281 84 67 82 67 75 C 67 74.488281 66.964844 73.984375 66.90625 73.484375 C 67.601562 73.964844 68.328125 74.4375 69.113281 74.890625 C 74.3125 77.890625 77.113281 77.039062 78.042969 75.429688 C 80.042969 71.964844 75.5625 69.722656 78.714844 64.269531 C 80.472656 61.222656 82.933594 60.957031 84.445312 58.339844 C 86.128906 55.425781 86.214844 51.277344 80.152344 47.777344 Z M 80.152344 47.777344"/><path style="stroke:none;fill-rule:nonzero;fill:#1f212b;fill-opacity:1" d="M 58 12 C 55.796875 12 54.59375 13.269531 53.535156 14.390625 C 52.269531 15.734375 51.074219 17 48 17 C 46.378906 17 45.257812 16.523438 44.070312 16.023438 C 42.882812 15.519531 41.65625 15 40 15 C 38.148438 15 32.183594 15.71875 32.015625 24.628906 C 32.734375 25.0625 33.414062 25.507812 34.054688 25.960938 C 34.027344 25.640625 34 25.324219 34 25 C 34 18.039062 37.757812 17 40 17 C 41.25 17 42.195312 17.398438 43.289062 17.863281 C 44.546875 18.394531 45.972656 19 48 19 C 51.933594 19 53.628906 17.207031 54.988281 15.765625 C 55.957031 14.738281 56.65625 14 58 14 C 59.382812 14 61 15.832031 61 21 C 61 21.726562 60.96875 22.421875 60.921875 23.105469 C 60.851562 24.160156 60.734375 25.167969 60.574219 26.113281 C 59.5 32.558594 56.734375 36.355469 56.699219 36.402344 C 56.367188 36.84375 56.460938 37.46875 56.902344 37.800781 C 57.34375 38.128906 57.96875 38.039062 58.300781 37.601562 C 58.46875 37.371094 62.0625 32.46875 62.84375 24.171875 C 62.914062 23.390625 62.960938 22.574219 62.980469 21.734375 C 62.984375 21.488281 63 21.25 63 21 C 63 14.363281 60.417969 12 58 12 Z M 58 12"/><path style="stroke:none;fill-rule:nonzero;fill:#1f212b;fill-opacity:1" d="M 20.347656 51.355469 C 14.320312 47.875 15.300781 44.101562 16.421875 42.160156 C 17.046875 41.078125 17.863281 40.460938 18.816406 39.742188 C 19.90625 38.921875 21.140625 37.988281 22.152344 36.230469 C 24.121094 32.824219 23.414062 30.460938 22.847656 28.558594 C 22.441406 27.210938 22.152344 26.234375 22.824219 25.070312 C 23.171875 24.46875 23.871094 24.136719 24.847656 24.109375 C 25.867188 24.09375 27.632812 24.382812 30.386719 25.972656 C 31.015625 26.335938 31.601562 26.714844 32.171875 27.09375 C 33.050781 27.683594 33.863281 28.289062 34.605469 28.898438 C 39.644531 33.054688 41.550781 37.347656 41.570312 37.398438 C 41.789062 37.90625 42.378906 38.140625 42.886719 37.921875 C 43.390625 37.703125 43.628906 37.117188 43.410156 36.613281 C 43.296875 36.351562 40.847656 30.785156 34.050781 25.960938 C 33.410156 25.507812 32.730469 25.0625 32.015625 24.628906 C 31.800781 24.5 31.601562 24.367188 31.382812 24.242188 C 28.847656 22.777344 26.621094 22.078125 24.792969 22.109375 C 22.519531 22.171875 21.496094 23.367188 21.089844 24.070312 C 19.984375 25.980469 20.488281 27.65625 20.929688 29.132812 C 21.457031 30.902344 21.953125 32.570312 20.417969 35.234375 C 19.609375 36.636719 18.636719 37.371094 17.609375 38.148438 C 16.578125 38.921875 15.515625 39.726562 14.6875 41.160156 C 13.761719 42.761719 11.386719 48.292969 19.023438 52.894531 C 19.761719 52.488281 20.492188 52.121094 21.207031 51.792969 C 20.917969 51.652344 20.628906 51.519531 20.347656 51.355469 Z M 20.347656 51.355469"/><path style="stroke:none;fill-rule:nonzero;fill:#1f212b;fill-opacity:1" d="M 36.347656 76.355469 C 33.816406 77.816406 31.613281 78.328125 29.800781 77.875 C 28.050781 77.4375 26.996094 76.15625 26.421875 75.160156 C 25.796875 74.078125 25.671875 73.058594 25.523438 71.878906 C 25.355469 70.523438 25.167969 68.988281 24.152344 67.234375 C 22.183594 63.824219 19.785156 63.253906 17.855469 62.796875 C 16.484375 62.472656 15.496094 62.234375 14.824219 61.070312 C 14.132812 59.871094 14.910156 57.554688 19.386719 54.972656 C 20.011719 54.609375 20.628906 54.289062 21.242188 53.988281 C 22.195312 53.523438 23.125 53.121094 24.023438 52.785156 C 30.144531 50.492188 34.816406 50.992188 34.875 50.996094 C 35.410156 51.0625 35.917969 50.667969 35.984375 50.121094 C 36.050781 49.574219 35.660156 49.078125 35.109375 49.011719 C 34.828125 48.976562 28.785156 48.316406 21.207031 51.789062 C 20.492188 52.117188 19.765625 52.488281 19.027344 52.894531 C 18.8125 53.011719 18.601562 53.117188 18.382812 53.242188 C 12.636719 56.558594 11.882812 59.976562 13.089844 62.070312 C 14.191406 63.980469 15.894531 64.386719 17.394531 64.742188 C 19.1875 65.167969 20.882812 65.570312 22.421875 68.230469 C 23.230469 69.636719 23.378906 70.84375 23.539062 72.125 C 23.699219 73.402344 23.859375 74.726562 24.6875 76.160156 C 25.789062 78.070312 27.390625 79.335938 29.316406 79.816406 C 29.902344 79.960938 30.511719 80.035156 31.140625 80.035156 C 32.929688 80.035156 34.898438 79.441406 37.019531 78.269531 C 37.035156 77.425781 37.082031 76.613281 37.15625 75.832031 C 36.890625 76.011719 36.628906 76.195312 36.347656 76.355469 Z M 36.347656 76.355469"/><path style="stroke:none;fill-rule:nonzero;fill:#1f212b;fill-opacity:1" d="M 66 75 C 66 81.960938 62.242188 83 60 83 C 58.75 83 57.804688 82.601562 56.710938 82.136719 C 55.453125 81.605469 54.027344 81 52 81 C 48.066406 81 46.371094 82.792969 45.011719 84.234375 C 44.042969 85.261719 43.34375 86 42 86 C 40.617188 86 39 84.167969 39 79 C 39 78.273438 39.03125 77.578125 39.078125 76.894531 C 39.148438 75.839844 39.265625 74.832031 39.425781 73.886719 C 40.5 67.441406 43.265625 63.644531 43.300781 63.597656 C 43.632812 63.15625 43.539062 62.53125 43.097656 62.199219 C 42.65625 61.871094 42.03125 61.960938 41.699219 62.398438 C 41.53125 62.628906 37.9375 67.53125 37.15625 75.828125 C 37.085938 76.613281 37.039062 77.425781 37.019531 78.269531 C 37.015625 78.515625 37 78.75 37 79 C 37 85.636719 39.582031 88 42 88 C 44.203125 88 45.40625 86.730469 46.464844 85.609375 C 47.730469 84.265625 48.925781 83 52 83 C 53.621094 83 54.742188 83.476562 55.929688 83.976562 C 57.117188 84.480469 58.34375 85 60 85 C 61.851562 85 67.816406 84.28125 67.984375 75.371094 C 67.265625 74.9375 66.585938 74.492188 65.945312 74.039062 C 65.972656 74.359375 66 74.675781 66 75 Z M 66 75"/><path style="stroke:none;fill-rule:nonzero;fill:#1f212b;fill-opacity:1" d="M 80.976562 47.109375 C 80.238281 47.515625 79.511719 47.882812 78.796875 48.210938 C 79.085938 48.347656 79.371094 48.484375 79.652344 48.644531 C 85.679688 52.125 84.699219 55.898438 83.578125 57.839844 C 82.953125 58.921875 82.136719 59.539062 81.183594 60.257812 C 80.09375 61.078125 78.859375 62.011719 77.847656 63.769531 C 75.878906 67.175781 76.585938 69.539062 77.152344 71.441406 C 77.558594 72.789062 77.847656 73.765625 77.175781 74.929688 C 76.828125 75.53125 76.128906 75.863281 75.152344 75.890625 C 74.144531 75.917969 72.367188 75.617188 69.613281 74.027344 C 68.984375 73.664062 68.398438 73.285156 67.828125 72.90625 C 66.949219 72.316406 66.136719 71.710938 65.394531 71.101562 C 60.355469 66.945312 58.449219 62.652344 58.429688 62.601562 C 58.210938 62.09375 57.617188 61.855469 57.113281 62.078125 C 56.609375 62.296875 56.371094 62.882812 56.589844 63.386719 C 56.703125 63.648438 59.152344 69.214844 65.949219 74.039062 C 66.589844 74.492188 67.269531 74.9375 67.984375 75.371094 C 68.199219 75.5 68.398438 75.632812 68.617188 75.757812 C 71.070312 77.175781 73.222656 77.890625 75.027344 77.890625 C 75.089844 77.890625 75.148438 77.890625 75.207031 77.890625 C 77.480469 77.828125 78.503906 76.632812 78.910156 75.929688 C 80.015625 74.019531 79.511719 72.34375 79.070312 70.867188 C 78.542969 69.097656 78.046875 67.429688 79.582031 64.765625 C 80.390625 63.363281 81.363281 62.628906 82.390625 61.851562 C 83.421875 61.078125 84.484375 60.273438 85.3125 58.839844 C 86.234375 57.238281 88.609375 51.710938 80.976562 47.109375 Z M 80.976562 47.109375"/><path style="stroke:none;fill-rule:nonzero;fill:#1f212b;fill-opacity:1" d="M 86.910156 37.929688 C 85.804688 36.019531 84.105469 35.613281 82.605469 35.257812 C 80.8125 34.832031 79.113281 34.429688 77.578125 31.769531 C 76.769531 30.363281 76.617188 29.15625 76.460938 27.875 C 76.300781 26.597656 76.136719 25.273438 75.3125 23.839844 C 74.207031 21.929688 72.605469 20.664062 70.683594 20.183594 C 68.4375 19.621094 65.84375 20.152344 62.980469 21.734375 C 62.960938 22.574219 62.917969 23.390625 62.84375 24.171875 C 63.109375 23.988281 63.371094 23.804688 63.652344 23.644531 C 66.183594 22.183594 68.386719 21.671875 70.199219 22.125 C 71.949219 22.5625 73.003906 23.84375 73.578125 24.839844 C 74.203125 25.921875 74.328125 26.941406 74.476562 28.121094 C 74.644531 29.476562 74.832031 31.011719 75.847656 32.765625 C 77.816406 36.175781 80.214844 36.746094 82.144531 37.203125 C 83.515625 37.527344 84.503906 37.765625 85.175781 38.929688 C 85.867188 40.128906 85.089844 42.445312 80.613281 45.027344 C 79.984375 45.390625 79.367188 45.710938 78.753906 46.011719 C 77.804688 46.480469 76.875 46.882812 75.976562 47.21875 C 69.855469 49.507812 65.183594 49.011719 65.128906 49.003906 C 64.589844 48.933594 64.082031 49.328125 64.015625 49.878906 C 63.953125 50.425781 64.34375 50.921875 64.890625 50.988281 C 64.972656 51 65.542969 51.0625 66.496094 51.0625 C 68.820312 51.0625 73.425781 50.675781 78.796875 48.210938 C 79.511719 47.882812 80.238281 47.515625 80.980469 47.109375 C 81.191406 46.992188 81.402344 46.882812 81.617188 46.757812 C 87.359375 43.441406 88.117188 40.019531 86.910156 37.929688 Z M 86.910156 37.929688"/><path style="stroke:none;fill-rule:nonzero;fill:#1f212b;fill-opacity:1" d="M 35.933594 45.265625 C 35.917969 45.265625 35.902344 45.265625 35.882812 45.261719 L 28.578125 44.511719 C 28.304688 44.480469 28.105469 44.238281 28.132812 43.960938 C 28.160156 43.6875 28.40625 43.488281 28.683594 43.515625 L 35.984375 44.269531 C 36.261719 44.296875 36.460938 44.542969 36.433594 44.816406 C 36.40625 45.074219 36.1875 45.265625 35.933594 45.265625 Z M 35.933594 45.265625"/><path style="stroke:none;fill-rule:nonzero;fill:#1f212b;fill-opacity:1" d="M 37.011719 43 C 36.871094 43 36.734375 42.941406 36.636719 42.832031 L 31.390625 36.917969 C 31.207031 36.710938 31.226562 36.394531 31.433594 36.210938 C 31.640625 36.027344 31.953125 36.046875 32.140625 36.253906 L 37.382812 42.167969 C 37.566406 42.375 37.550781 42.691406 37.34375 42.875 C 37.246094 42.960938 37.128906 43 37.011719 43 Z M 37.011719 43"/><path style="stroke:none;fill-rule:nonzero;fill:#1f212b;fill-opacity:1" d="M 61.566406 40.9375 C 61.464844 40.9375 61.359375 40.90625 61.273438 40.839844 C 61.050781 40.679688 61 40.367188 61.160156 40.144531 L 65.464844 34.195312 C 65.628906 33.96875 65.941406 33.921875 66.164062 34.082031 C 66.386719 34.246094 66.4375 34.558594 66.273438 34.78125 L 61.972656 40.730469 C 61.871094 40.863281 61.71875 40.9375 61.566406 40.9375 Z M 61.566406 40.9375"/><path style="stroke:none;fill-rule:nonzero;fill:#1f212b;fill-opacity:1" d="M 62.988281 43 C 62.757812 43 62.550781 42.835938 62.5 42.601562 C 62.445312 42.328125 62.621094 42.066406 62.890625 42.011719 L 70.636719 40.425781 C 70.90625 40.371094 71.171875 40.546875 71.226562 40.816406 C 71.28125 41.085938 71.105469 41.351562 70.835938 41.40625 L 63.089844 42.988281 C 63.058594 42.996094 63.023438 43 62.988281 43 Z M 62.988281 43"/><path style="stroke:none;fill-rule:nonzero;fill:#1f212b;fill-opacity:1" d="M 71.371094 56.488281 C 71.351562 56.488281 71.335938 56.484375 71.316406 56.484375 L 64.015625 55.730469 C 63.738281 55.703125 63.539062 55.457031 63.566406 55.183594 C 63.597656 54.90625 63.84375 54.710938 64.117188 54.738281 L 71.421875 55.488281 C 71.695312 55.519531 71.894531 55.761719 71.867188 56.039062 C 71.839844 56.296875 71.625 56.488281 71.371094 56.488281 Z M 71.371094 56.488281"/><path style="stroke:none;fill-rule:nonzero;fill:#1f212b;fill-opacity:1" d="M 55.5 72 C 55.308594 72 55.125 71.890625 55.042969 71.703125 L 52.042969 65.003906 C 51.929688 64.75 52.042969 64.453125 52.296875 64.34375 C 52.546875 64.226562 52.84375 64.34375 52.957031 64.59375 L 55.957031 71.296875 C 56.070312 71.546875 55.957031 71.84375 55.703125 71.957031 C 55.636719 71.984375 55.566406 72 55.5 72 Z M 55.5 72"/><path style="stroke:none;fill-rule:nonzero;fill:#1f212b;fill-opacity:1" d="M 47.5 73 C 47.449219 73 47.394531 72.992188 47.34375 72.976562 C 47.078125 72.886719 46.9375 72.605469 47.027344 72.34375 L 49.527344 64.84375 C 49.613281 64.582031 49.894531 64.4375 50.15625 64.527344 C 50.421875 64.613281 50.5625 64.898438 50.472656 65.160156 L 47.972656 72.660156 C 47.902344 72.867188 47.710938 73 47.5 73 Z M 47.5 73"/><path style="stroke:none;fill-rule:nonzero;fill:#1f212b;fill-opacity:1" d="M 34.128906 66.011719 C 34.027344 66.011719 33.925781 65.980469 33.839844 65.917969 C 33.613281 65.757812 33.5625 65.441406 33.726562 65.21875 L 38.03125 59.273438 C 38.191406 59.046875 38.503906 59 38.726562 59.160156 C 38.953125 59.320312 39.003906 59.636719 38.839844 59.859375 L 34.535156 65.804688 C 34.4375 65.941406 34.285156 66.011719 34.128906 66.011719 Z M 34.128906 66.011719"/><path style="stroke:none;fill-rule:nonzero;fill:#1f212b;fill-opacity:1" d="M 47.5 35.703125 C 47.308594 35.703125 47.125 35.59375 47.042969 35.40625 L 44.042969 28.703125 C 43.929688 28.453125 44.042969 28.15625 44.296875 28.042969 C 44.546875 27.929688 44.84375 28.042969 44.957031 28.296875 L 47.957031 34.996094 C 48.070312 35.25 47.957031 35.546875 47.703125 35.65625 C 47.636719 35.6875 47.566406 35.703125 47.5 35.703125 Z M 47.5 35.703125"/><path style="stroke:none;fill-rule:nonzero;fill:#1f212b;fill-opacity:1" d="M 52.167969 29 C 52.113281 29 52.0625 28.992188 52.007812 28.976562 C 51.746094 28.886719 51.605469 28.605469 51.691406 28.34375 L 52.027344 27.34375 C 52.113281 27.082031 52.394531 26.9375 52.65625 27.027344 C 52.921875 27.113281 53.0625 27.398438 52.972656 27.660156 L 52.640625 28.660156 C 52.570312 28.867188 52.375 29 52.167969 29 Z M 52.167969 29"/><path style="stroke:none;fill-rule:nonzero;fill:#1f212b;fill-opacity:1" d="M 50 35.5 C 49.949219 35.5 49.894531 35.492188 49.84375 35.476562 C 49.578125 35.386719 49.4375 35.105469 49.527344 34.84375 L 51.027344 30.34375 C 51.113281 30.078125 51.394531 29.9375 51.65625 30.027344 C 51.921875 30.113281 52.0625 30.398438 51.972656 30.660156 L 50.472656 35.160156 C 50.402344 35.367188 50.210938 35.5 50 35.5 Z M 50 35.5"/><path style="stroke:none;fill-rule:nonzero;fill:#1f212b;fill-opacity:1" d="M 29.265625 59.585938 C 29.03125 59.585938 28.824219 59.421875 28.773438 59.1875 C 28.71875 58.914062 28.894531 58.652344 29.164062 58.59375 L 30.398438 58.34375 C 30.667969 58.289062 30.933594 58.460938 30.988281 58.730469 C 31.046875 59.003906 30.871094 59.265625 30.601562 59.324219 L 29.363281 59.574219 C 29.332031 59.582031 29.296875 59.585938 29.265625 59.585938 Z M 29.265625 59.585938"/><path style="stroke:none;fill-rule:nonzero;fill:#1f212b;fill-opacity:1" d="M 64.765625 60 C 64.625 60 64.488281 59.941406 64.390625 59.832031 L 62.617188 57.832031 C 62.433594 57.625 62.453125 57.308594 62.660156 57.125 C 62.863281 56.941406 63.179688 56.960938 63.363281 57.167969 L 65.136719 59.167969 C 65.320312 59.375 65.304688 59.691406 65.097656 59.875 C 65 59.960938 64.882812 60 64.765625 60 Z M 64.765625 60"/><path style="stroke:none;fill-rule:nonzero;fill:#1f212b;fill-opacity:1" d="M 68.234375 63.914062 C 68.097656 63.914062 67.960938 63.859375 67.859375 63.746094 L 67.050781 62.832031 C 66.867188 62.625 66.886719 62.308594 67.09375 62.125 C 67.296875 61.941406 67.613281 61.960938 67.796875 62.167969 L 68.609375 63.082031 C 68.792969 63.289062 68.773438 63.605469 68.566406 63.789062 C 68.472656 63.875 68.355469 63.914062 68.234375 63.914062 Z M 68.234375 63.914062"/><path style="stroke:none;fill-rule:nonzero;fill:#1f212b;fill-opacity:1" d="M 33.5 58.71875 C 33.269531 58.71875 33.058594 58.554688 33.011719 58.320312 C 32.953125 58.046875 33.128906 57.785156 33.402344 57.726562 L 36.910156 57.011719 C 37.179688 56.953125 37.445312 57.128906 37.5 57.398438 C 37.558594 57.671875 37.382812 57.933594 37.109375 57.992188 L 33.601562 58.710938 C 33.566406 58.714844 33.53125 58.71875 33.5 58.71875 Z M 33.5 58.71875"/><path style="stroke:none;fill-rule:nonzero;fill:#f8e55b;fill-opacity:1" d="M 65 50 C 65 58.285156 58.285156 65 50 65 C 41.714844 65 35 58.285156 35 50 C 35 41.714844 41.714844 35 50 35 C 58.285156 35 65 41.714844 65 50 Z M 65 50"/><path style="stroke:none;fill-rule:nonzero;fill:#fef6aa;fill-opacity:1" d="M 59.5 50 C 59.5 55.246094 55.246094 59.5 50 59.5 C 44.753906 59.5 40.5 55.246094 40.5 50 C 40.5 44.753906 44.753906 40.5 50 40.5 C 55.246094 40.5 59.5 44.753906 59.5 50 Z M 59.5 50"/><path style="stroke:none;fill-rule:nonzero;fill:#1f212b;fill-opacity:1" d="M 50 60 C 44.484375 60 40 55.515625 40 50 C 40 44.484375 44.484375 40 50 40 C 55.515625 40 60 44.484375 60 50 C 60 55.515625 55.515625 60 50 60 Z M 50 41 C 45.039062 41 41 45.035156 41 50 C 41 54.964844 45.039062 59 50 59 C 54.960938 59 59 54.964844 59 50 C 59 45.035156 54.960938 41 50 41 Z M 50 41"/><path style="stroke:none;fill-rule:nonzero;fill:#1f212b;fill-opacity:1" d="M 50 66 C 41.179688 66 34 58.820312 34 50 C 34 41.179688 41.179688 34 50 34 C 58.820312 34 66 41.179688 66 50 C 66 58.820312 58.820312 66 50 66 Z M 50 36 C 42.28125 36 36 42.28125 36 50 C 36 57.71875 42.28125 64 50 64 C 57.71875 64 64 57.71875 64 50 C 64 42.28125 57.71875 36 50 36 Z M 50 36"/><path style="stroke:none;fill-rule:nonzero;fill:#1f212b;fill-opacity:1" d="M 53.15625 46 C 53.058594 46 52.957031 45.972656 52.867188 45.910156 C 52.679688 45.777344 52.480469 45.65625 52.273438 45.550781 C 52.027344 45.425781 51.929688 45.121094 52.054688 44.878906 C 52.179688 44.632812 52.484375 44.535156 52.726562 44.660156 C 52.976562 44.789062 53.214844 44.929688 53.445312 45.089844 C 53.671875 45.25 53.722656 45.5625 53.566406 45.785156 C 53.46875 45.925781 53.3125 46 53.15625 46 Z M 53.15625 46"/><path style="stroke:none;fill-rule:nonzero;fill:#1f212b;fill-opacity:1" d="M 55.472656 50 C 55.21875 50 55 49.804688 54.976562 49.546875 C 54.917969 48.910156 54.742188 48.300781 54.449219 47.726562 C 54.324219 47.484375 54.421875 47.179688 54.664062 47.054688 C 54.914062 46.929688 55.214844 47.027344 55.339844 47.273438 C 55.691406 47.960938 55.902344 48.695312 55.972656 49.457031 C 55.996094 49.730469 55.792969 49.976562 55.519531 50 C 55.503906 50 55.488281 50 55.472656 50 Z M 55.472656 50"/><path style="stroke:none;fill-rule:nonzero;fill:#1f212b;fill-opacity:1" d="M 50 56 C 46.691406 56 44 53.308594 44 50 C 44 46.691406 46.691406 44 50 44 C 50.183594 44 50.363281 44.011719 50.542969 44.027344 C 50.820312 44.050781 51.023438 44.296875 50.996094 44.570312 C 50.972656 44.84375 50.734375 45.046875 50.457031 45.023438 C 50.304688 45.011719 50.152344 45 50 45 C 47.242188 45 45 47.242188 45 50 C 45 52.757812 47.242188 55 50 55 C 51.472656 55 52.867188 54.335938 53.824219 53.183594 C 54 52.96875 54.3125 52.9375 54.527344 53.113281 C 54.738281 53.292969 54.769531 53.605469 54.59375 53.820312 C 53.449219 55.203125 51.773438 56 50 56 Z M 50 56"/></g></svg>