<svg width="270" height="100" viewBox="0 0 270 100" fill="none" xmlns="http://www.w3.org/2000/svg">
<path d="M80.1523 47.7773C79.7109 47.5234 79.2539 47.3008 78.7891 47.1016C79.5547 46.7383 80.3281 46.3477 81.1133 45.8945C86.3125 42.8945 86.9727 40.0391 86.043 38.4297C84.043 34.9648 79.8594 37.7227 76.7148 32.2695C74.9531 29.2266 75.9531 26.957 74.4453 24.3398C72.7617 21.4297 69.2148 19.2773 63.1523 22.7773C62.7109 23.0352 62.2891 23.3164 61.8867 23.6172C61.9531 22.7734 62 21.9102 62 21C62 15 59.8594 13 58 13C54 13 54.2969 18 48 18C44.4844 18 43.0195 16 40 16C36.6367 16 33 18 33 25C33 25.5117 33.0352 26.0156 33.0938 26.5156C32.3984 26.0352 31.6719 25.5625 30.8867 25.1094C25.6875 22.1094 22.8867 22.9609 21.957 24.5703C19.957 28.0352 24.4375 30.2773 21.2852 35.7305C19.5273 38.7773 17.0664 39.043 15.5547 41.6602C13.8711 44.5742 13.7852 48.7227 19.8477 52.2227C20.2891 52.4766 20.7461 52.6992 21.2109 52.8984C20.4453 53.2617 19.6719 53.6523 18.8867 54.1055C13.6875 57.1055 13.0273 59.9609 13.957 61.5703C15.957 65.0352 20.1406 62.2773 23.2852 67.7305C25.0469 70.7734 24.0469 73.043 25.5547 75.6602C27.2383 78.5703 30.7852 80.7227 36.8477 77.2227C37.2891 76.9648 37.7109 76.6836 38.1133 76.3828C38.0469 77.2266 38 78.0898 38 79C38 85 40.1406 87 42 87C46 87 45.7031 82 52 82C55.5156 82 56.9805 84 60 84C63.3633 84 67 82 67 75C67 74.4883 66.9648 73.9844 66.9062 73.4844C67.6016 73.9648 68.3281 74.4375 69.1133 74.8906C74.3125 77.8906 77.1133 77.0391 78.043 75.4297C80.043 71.9648 75.5625 69.7227 78.7148 64.2695C80.4727 61.2227 82.9336 60.957 84.4453 58.3398C86.1289 55.4258 86.2148 51.2773 80.1523 47.7773Z" fill="#BA68C8"/>
<path d="M58 12C55.7969 12 54.5938 13.2695 53.5352 14.3906C52.2695 15.7344 51.0742 17 48 17C46.3789 17 45.2578 16.5234 44.0703 16.0234C42.8828 15.5195 41.6562 15 40 15C38.1484 15 32.1836 15.7188 32.0156 24.6289C32.7344 25.0625 33.4141 25.5078 34.0547 25.9609C34.0273 25.6406 34 25.3242 34 25C34 18.0391 37.7578 17 40 17C41.25 17 42.1953 17.3984 43.2891 17.8633C44.5469 18.3945 45.9727 19 48 19C51.9336 19 53.6289 17.207 54.9883 15.7656C55.957 14.7383 56.6562 14 58 14C59.3828 14 61 15.832 61 21C61 21.7266 60.9688 22.4219 60.9219 23.1055C60.8516 24.1602 60.7344 25.168 60.5742 26.1133C59.5 32.5586 56.7344 36.3555 56.6992 36.4023C56.3672 36.8437 56.4609 37.4688 56.9023 37.8008C57.3437 38.1289 57.9688 38.0391 58.3008 37.6016C58.4688 37.3711 62.0625 32.4688 62.8438 24.1719C62.9141 23.3906 62.9609 22.5742 62.9805 21.7344C62.9844 21.4883 63 21.25 63 21C63 14.3633 60.418 12 58 12Z" fill="#1F212B"/>
<path d="M20.3477 51.3555C14.3203 47.875 15.3008 44.1016 16.4219 42.1602C17.0469 41.0781 17.8633 40.4609 18.8164 39.7422C19.9063 38.9219 21.1406 37.9883 22.1524 36.2305C24.1211 32.8242 23.4141 30.4609 22.8477 28.5586C22.4414 27.2109 22.1524 26.2344 22.8242 25.0703C23.1719 24.4687 23.8711 24.1367 24.8477 24.1094C25.8672 24.0937 27.6328 24.3828 30.3867 25.9727C31.0156 26.3359 31.6016 26.7148 32.1719 27.0937C33.0508 27.6836 33.8633 28.2891 34.6055 28.8984C39.6446 33.0547 41.5508 37.3477 41.5703 37.3984C41.7891 37.9062 42.3789 38.1406 42.8867 37.9219C43.3906 37.7031 43.6289 37.1172 43.4102 36.6133C43.2969 36.3516 40.8477 30.7852 34.0508 25.9609C33.4102 25.5078 32.7305 25.0625 32.0156 24.6289C31.8008 24.5 31.6016 24.3672 31.3828 24.2422C28.8477 22.7773 26.6211 22.0781 24.793 22.1094C22.5196 22.1719 21.4961 23.3672 21.0899 24.0703C19.9844 25.9805 20.4883 27.6562 20.9297 29.1328C21.4571 30.9023 21.9531 32.5703 20.418 35.2344C19.6094 36.6367 18.6367 37.3711 17.6094 38.1484C16.5781 38.9219 15.5156 39.7266 14.6875 41.1602C13.7617 42.7617 11.3867 48.293 19.0235 52.8945C19.7617 52.4883 20.4922 52.1211 21.2071 51.793C20.918 51.6523 20.6289 51.5195 20.3477 51.3555Z" fill="#1F212B"/>
<path d="M36.3477 76.3555C33.8164 77.8164 31.6133 78.3281 29.8008 77.875C28.0508 77.4375 26.9961 76.1563 26.4219 75.1602C25.7969 74.0781 25.6719 73.0586 25.5235 71.8789C25.3555 70.5234 25.168 68.9883 24.1524 67.2344C22.1836 63.8242 19.7852 63.2539 17.8555 62.7969C16.4844 62.4727 15.4961 62.2344 14.8242 61.0703C14.1328 59.8711 14.9102 57.5547 19.3867 54.9727C20.0117 54.6094 20.6289 54.2891 21.2422 53.9883C22.1953 53.5234 23.125 53.1211 24.0235 52.7852C30.1445 50.4922 34.8164 50.9922 34.875 50.9961C35.4102 51.0625 35.918 50.668 35.9844 50.1211C36.0508 49.5742 35.6602 49.0781 35.1094 49.0117C34.8281 48.9766 28.7852 48.3164 21.207 51.7891C20.4922 52.1172 19.7656 52.4883 19.0274 52.8945C18.8125 53.0117 18.6016 53.1172 18.3828 53.2422C12.6367 56.5586 11.8828 59.9766 13.0899 62.0703C14.1914 63.9805 15.8945 64.3867 17.3945 64.7422C19.1875 65.168 20.8828 65.5703 22.4219 68.2305C23.2305 69.6367 23.3789 70.8438 23.5391 72.125C23.6992 73.4023 23.8594 74.7266 24.6875 76.1602C25.7891 78.0703 27.3906 79.3359 29.3164 79.8164C29.9024 79.9609 30.5117 80.0352 31.1406 80.0352C32.9297 80.0352 34.8985 79.4414 37.0195 78.2695C37.0352 77.4258 37.082 76.6133 37.1563 75.832C36.8906 76.0117 36.6289 76.1953 36.3477 76.3555Z" fill="#1F212B"/>
<path d="M66 75C66 81.9609 62.2422 83 60 83C58.75 83 57.8047 82.6016 56.7109 82.1367C55.4531 81.6055 54.0273 81 52 81C48.0664 81 46.3711 82.793 45.0117 84.2344C44.043 85.2617 43.3438 86 42 86C40.6172 86 39 84.168 39 79C39 78.2734 39.0312 77.5781 39.0781 76.8945C39.1484 75.8398 39.2656 74.832 39.4258 73.8867C40.5 67.4414 43.2656 63.6445 43.3008 63.5977C43.6328 63.1562 43.5391 62.5312 43.0977 62.1992C42.6563 61.8711 42.0312 61.9609 41.6992 62.3984C41.5312 62.6289 37.9375 67.5312 37.1562 75.8281C37.0859 76.6133 37.0391 77.4258 37.0195 78.2695C37.0156 78.5156 37 78.75 37 79C37 85.6367 39.582 88 42 88C44.2031 88 45.4062 86.7305 46.4648 85.6094C47.7305 84.2656 48.9258 83 52 83C53.6211 83 54.7422 83.4766 55.9297 83.9766C57.1172 84.4805 58.3438 85 60 85C61.8516 85 67.8164 84.2812 67.9844 75.3711C67.2656 74.9375 66.5859 74.4922 65.9453 74.0391C65.9727 74.3594 66 74.6758 66 75Z" fill="#1F212B"/>
<path d="M80.9766 47.1094C80.2383 47.5156 79.5117 47.8828 78.7969 48.2109C79.0859 48.3477 79.3711 48.4844 79.6524 48.6445C85.6797 52.125 84.6992 55.8984 83.5781 57.8398C82.9531 58.9219 82.1367 59.5391 81.1836 60.2578C80.0938 61.0781 78.8594 62.0117 77.8477 63.7695C75.8789 67.1758 76.5859 69.5391 77.1524 71.4414C77.5586 72.7891 77.8477 73.7656 77.1758 74.9297C76.8281 75.5312 76.1289 75.8633 75.1524 75.8906C74.1445 75.918 72.3672 75.6172 69.6133 74.0273C68.9844 73.6641 68.3984 73.2852 67.8281 72.9062C66.9492 72.3164 66.1367 71.7109 65.3945 71.1016C60.3555 66.9453 58.4492 62.6523 58.4297 62.6016C58.2109 62.0938 57.6172 61.8555 57.1133 62.0781C56.6094 62.2969 56.3711 62.8828 56.5899 63.3867C56.7031 63.6484 59.1524 69.2148 65.9492 74.0391C66.5899 74.4922 67.2695 74.9375 67.9844 75.3711C68.1992 75.5 68.3984 75.6328 68.6172 75.7578C71.0703 77.1758 73.2227 77.8906 75.0274 77.8906C75.0899 77.8906 75.1484 77.8906 75.207 77.8906C77.4805 77.8281 78.5039 76.6328 78.9102 75.9297C80.0156 74.0195 79.5117 72.3437 79.0703 70.8672C78.543 69.0977 78.0469 67.4297 79.582 64.7656C80.3906 63.3633 81.3633 62.6289 82.3906 61.8516C83.4219 61.0781 84.4844 60.2734 85.3125 58.8398C86.2344 57.2383 88.6094 51.7109 80.9766 47.1094Z" fill="#1F212B"/>
<path d="M86.9102 37.9297C85.8047 36.0195 84.1055 35.6133 82.6055 35.2578C80.8125 34.832 79.1133 34.4297 77.5781 31.7695C76.7695 30.3633 76.6172 29.1563 76.4609 27.875C76.3008 26.5977 76.1367 25.2734 75.3125 23.8398C74.207 21.9297 72.6055 20.6641 70.6836 20.1836C68.4375 19.6211 65.8437 20.1523 62.9805 21.7344C62.9609 22.5742 62.918 23.3906 62.8438 24.1719C63.1094 23.9883 63.3711 23.8047 63.6523 23.6445C66.1836 22.1836 68.3867 21.6719 70.1992 22.125C71.9492 22.5625 73.0039 23.8438 73.5781 24.8398C74.2031 25.9219 74.3281 26.9414 74.4766 28.1211C74.6445 29.4766 74.832 31.0117 75.8477 32.7656C77.8164 36.1758 80.2148 36.7461 82.1445 37.2031C83.5156 37.5273 84.5039 37.7656 85.1758 38.9297C85.8672 40.1289 85.0898 42.4453 80.6133 45.0273C79.9844 45.3906 79.3672 45.7109 78.7539 46.0117C77.8047 46.4805 76.875 46.8828 75.9766 47.2188C69.8555 49.5078 65.1836 49.0117 65.1289 49.0039C64.5898 48.9336 64.082 49.3281 64.0156 49.8789C63.9531 50.4258 64.3438 50.9219 64.8906 50.9883C64.9727 51 65.543 51.0625 66.4961 51.0625C68.8203 51.0625 73.4258 50.6758 78.7969 48.2109C79.5117 47.8828 80.2383 47.5156 80.9805 47.1094C81.1914 46.9922 81.4023 46.8828 81.6172 46.7578C87.3594 43.4414 88.1172 40.0195 86.9102 37.9297Z" fill="#1F212B"/>
<path d="M35.9336 45.2656C35.918 45.2656 35.9024 45.2656 35.8828 45.2617L28.5781 44.5117C28.3047 44.4805 28.1055 44.2383 28.1328 43.9609C28.1602 43.6875 28.4063 43.4883 28.6836 43.5156L35.9844 44.2695C36.2617 44.2969 36.4609 44.543 36.4336 44.8164C36.4063 45.0742 36.1875 45.2656 35.9336 45.2656Z" fill="#1F212B"/>
<path d="M37.0117 43C36.8711 43 36.7344 42.9414 36.6367 42.832L31.3906 36.918C31.2071 36.7109 31.2266 36.3945 31.4336 36.2109C31.6406 36.0273 31.9531 36.0469 32.1406 36.2539L37.3828 42.168C37.5664 42.375 37.5508 42.6914 37.3438 42.875C37.2461 42.9609 37.1289 43 37.0117 43Z" fill="#1F212B"/>
<path d="M61.5664 40.9375C61.4649 40.9375 61.3594 40.9062 61.2735 40.8398C61.0508 40.6797 61 40.3672 61.1602 40.1445L65.4649 34.1953C65.6289 33.9687 65.9414 33.9219 66.1641 34.082C66.3867 34.2461 66.4375 34.5586 66.2735 34.7812L61.9727 40.7305C61.8711 40.8633 61.7188 40.9375 61.5664 40.9375Z" fill="#1F212B"/>
<path d="M62.9883 43C62.7578 43 62.5508 42.8359 62.5 42.6016C62.4453 42.3281 62.6211 42.0664 62.8907 42.0117L70.6367 40.4258C70.9063 40.3711 71.1719 40.5469 71.2266 40.8164C71.2813 41.0859 71.1055 41.3516 70.836 41.4062L63.0899 42.9883C63.0586 42.9961 63.0235 43 62.9883 43Z" fill="#1F212B"/>
<path d="M71.3711 56.4883C71.3516 56.4883 71.3359 56.4844 71.3164 56.4844L64.0156 55.7305C63.7383 55.7031 63.5391 55.457 63.5664 55.1836C63.5977 54.9063 63.8438 54.7109 64.1172 54.7383L71.4219 55.4883C71.6953 55.5195 71.8945 55.7617 71.8672 56.0391C71.8399 56.2969 71.625 56.4883 71.3711 56.4883Z" fill="#1F212B"/>
<path d="M55.5 72C55.3086 72 55.125 71.8906 55.043 71.7031L52.043 65.0039C51.9297 64.75 52.043 64.4531 52.2969 64.3437C52.5469 64.2266 52.8438 64.3437 52.957 64.5937L55.957 71.2969C56.0703 71.5469 55.957 71.8437 55.7031 71.957C55.6367 71.9844 55.5664 72 55.5 72Z" fill="#1F212B"/>
<path d="M47.5 73C47.4492 73 47.3945 72.9922 47.3438 72.9766C47.0781 72.8867 46.9375 72.6055 47.0274 72.3438L49.5274 64.8438C49.6133 64.582 49.8945 64.4375 50.1563 64.5273C50.4219 64.6133 50.5625 64.8984 50.4727 65.1602L47.9727 72.6602C47.9024 72.8672 47.7109 73 47.5 73Z" fill="#1F212B"/>
<path d="M34.1289 66.0117C34.0274 66.0117 33.9258 65.9805 33.8399 65.918C33.6133 65.7578 33.5625 65.4414 33.7266 65.2187L38.0313 59.2734C38.1914 59.0469 38.5039 59 38.7266 59.1601C38.9531 59.3203 39.0039 59.6367 38.8399 59.8594L34.5352 65.8047C34.4375 65.9414 34.2852 66.0117 34.1289 66.0117Z" fill="#1F212B"/>
<path d="M47.5 35.7031C47.3086 35.7031 47.125 35.5937 47.043 35.4062L44.043 28.7031C43.9297 28.4531 44.043 28.1562 44.2969 28.043C44.5469 27.9297 44.8438 28.043 44.957 28.2969L47.957 34.9961C48.0703 35.25 47.957 35.5469 47.7031 35.6562C47.6367 35.6875 47.5664 35.7031 47.5 35.7031Z" fill="#1F212B"/>
<path d="M52.168 29C52.1133 29 52.0625 28.9922 52.0078 28.9766C51.7461 28.8867 51.6055 28.6055 51.6914 28.3438L52.0274 27.3438C52.1133 27.082 52.3945 26.9375 52.6563 27.0273C52.9219 27.1133 53.0625 27.3984 52.9727 27.6602L52.6406 28.6602C52.5703 28.8672 52.375 29 52.168 29Z" fill="#1F212B"/>
<path d="M50 35.5C49.9492 35.5 49.8945 35.4922 49.8438 35.4766C49.5781 35.3867 49.4375 35.1055 49.5274 34.8438L51.0274 30.3438C51.1133 30.0781 51.3945 29.9375 51.6563 30.0274C51.9219 30.1133 52.0625 30.3984 51.9727 30.6602L50.4727 35.1602C50.4024 35.3672 50.2109 35.5 50 35.5Z" fill="#1F212B"/>
<path d="M29.2657 59.5859C29.0313 59.5859 28.8242 59.4219 28.7735 59.1875C28.7188 58.9141 28.8946 58.6524 29.1641 58.5938L30.3985 58.3438C30.668 58.2891 30.9336 58.4609 30.9883 58.7305C31.0469 59.0039 30.8711 59.2656 30.6016 59.3242L29.3633 59.5742C29.3321 59.582 29.2969 59.5859 29.2657 59.5859Z" fill="#1F212B"/>
<path d="M64.7656 60C64.625 60 64.4883 59.9414 64.3906 59.832L62.6172 57.832C62.4336 57.625 62.4531 57.3086 62.6602 57.125C62.8633 56.9414 63.1797 56.9609 63.3633 57.168L65.1367 59.168C65.3203 59.375 65.3047 59.6914 65.0977 59.875C65 59.9609 64.8828 60 64.7656 60Z" fill="#1F212B"/>
<path d="M68.2344 63.9141C68.0977 63.9141 67.961 63.8594 67.8594 63.7461L67.0508 62.832C66.8672 62.625 66.8867 62.3086 67.0938 62.125C67.2969 61.9414 67.6133 61.9609 67.7969 62.168L68.6094 63.082C68.793 63.2891 68.7735 63.6055 68.5664 63.7891C68.4727 63.875 68.3555 63.9141 68.2344 63.9141Z" fill="#1F212B"/>
<path d="M33.5 58.7188C33.2695 58.7188 33.0586 58.5547 33.0117 58.3203C32.9531 58.0469 33.1289 57.7852 33.4024 57.7266L36.9102 57.0117C37.1797 56.9531 37.4453 57.1289 37.5 57.3984C37.5586 57.6719 37.3828 57.9336 37.1094 57.9922L33.6016 58.7109C33.5664 58.7148 33.5313 58.7188 33.5 58.7188Z" fill="#1F212B"/>
<path d="M65 50C65 58.2852 58.2852 65 50 65C41.7148 65 35 58.2852 35 50C35 41.7148 41.7148 35 50 35C58.2852 35 65 41.7148 65 50Z" fill="#F8E55B"/>
<path d="M59.5 50C59.5 55.2461 55.2461 59.5 50 59.5C44.7539 59.5 40.5 55.2461 40.5 50C40.5 44.7539 44.7539 40.5 50 40.5C55.2461 40.5 59.5 44.7539 59.5 50Z" fill="#FEF6AA"/>
<path d="M50 60C44.4844 60 40 55.5156 40 50C40 44.4844 44.4844 40 50 40C55.5156 40 60 44.4844 60 50C60 55.5156 55.5156 60 50 60ZM50 41C45.0391 41 41 45.0352 41 50C41 54.9648 45.0391 59 50 59C54.9609 59 59 54.9648 59 50C59 45.0352 54.9609 41 50 41Z" fill="#1F212B"/>
<path d="M50 66C41.1797 66 34 58.8203 34 50C34 41.1797 41.1797 34 50 34C58.8203 34 66 41.1797 66 50C66 58.8203 58.8203 66 50 66ZM50 36C42.2812 36 36 42.2812 36 50C36 57.7188 42.2812 64 50 64C57.7188 64 64 57.7188 64 50C64 42.2812 57.7188 36 50 36Z" fill="#1F212B"/>
<path d="M53.1563 46C53.0586 46 52.957 45.9727 52.8672 45.9102C52.6797 45.7773 52.4805 45.6563 52.2735 45.5508C52.0274 45.4258 51.9297 45.1211 52.0547 44.8789C52.1797 44.6328 52.4844 44.5352 52.7266 44.6602C52.9766 44.7891 53.2149 44.9297 53.4453 45.0898C53.6719 45.25 53.7227 45.5625 53.5664 45.7852C53.4688 45.9258 53.3125 46 53.1563 46Z" fill="#1F212B"/>
<path d="M55.4727 50C55.2187 50 55 49.8047 54.9766 49.5469C54.918 48.9102 54.7422 48.3008 54.4492 47.7266C54.3242 47.4844 54.4219 47.1797 54.6641 47.0547C54.9141 46.9297 55.2148 47.0273 55.3398 47.2734C55.6914 47.9609 55.9023 48.6953 55.9727 49.457C55.9961 49.7305 55.793 49.9766 55.5195 50C55.5039 50 55.4883 50 55.4727 50Z" fill="#1F212B"/>
<path d="M50 56C46.6914 56 44 53.3086 44 50C44 46.6914 46.6914 44 50 44C50.1836 44 50.3633 44.0117 50.543 44.0273C50.8203 44.0508 51.0234 44.2969 50.9961 44.5703C50.9727 44.8438 50.7344 45.0469 50.457 45.0234C50.3047 45.0117 50.1523 45 50 45C47.2422 45 45 47.2422 45 50C45 52.7578 47.2422 55 50 55C51.4727 55 52.8672 54.3359 53.8242 53.1836C54 52.9687 54.3125 52.9375 54.5273 53.1133C54.7383 53.293 54.7695 53.6055 54.5938 53.8203C53.4492 55.2031 51.7734 56 50 56Z" fill="#1F212B"/>
<path d="M125.648 52.6758H114.398V60.293H127.602V65H108.539V36.5625H127.562V41.3086H114.398V48.0859H125.648V52.6758ZM142.113 59.1602C142.113 58.4701 141.768 57.9297 141.078 57.5391C140.401 57.1354 139.307 56.7773 137.797 56.4648C132.771 55.4102 130.258 53.2747 130.258 50.0586C130.258 48.1836 131.033 46.6211 132.582 45.3711C134.145 44.1081 136.182 43.4766 138.695 43.4766C141.378 43.4766 143.52 44.1081 145.121 45.3711C146.736 46.6341 147.543 48.2747 147.543 50.293H141.898C141.898 49.4857 141.638 48.8216 141.117 48.3008C140.596 47.7669 139.783 47.5 138.676 47.5C137.725 47.5 136.99 47.7148 136.469 48.1445C135.948 48.5742 135.688 49.1211 135.688 49.7852C135.688 50.4102 135.98 50.918 136.566 51.3086C137.165 51.6862 138.168 52.0182 139.574 52.3047C140.98 52.5781 142.165 52.8906 143.129 53.2422C146.111 54.3359 147.602 56.2305 147.602 58.9258C147.602 60.8529 146.775 62.4154 145.121 63.6133C143.467 64.7982 141.332 65.3906 138.715 65.3906C136.944 65.3906 135.368 65.0781 133.988 64.4531C132.621 63.8151 131.547 62.9492 130.766 61.8555C129.984 60.7487 129.594 59.5573 129.594 58.2812H134.945C134.997 59.2839 135.368 60.0521 136.059 60.5859C136.749 61.1198 137.673 61.3867 138.832 61.3867C139.913 61.3867 140.727 61.1849 141.273 60.7812C141.833 60.3646 142.113 59.8242 142.113 59.1602ZM158.012 38.6719V43.8672H161.625V48.0078H158.012V58.5547C158.012 59.3359 158.161 59.8958 158.461 60.2344C158.76 60.5729 159.333 60.7422 160.18 60.7422C160.805 60.7422 161.358 60.6966 161.84 60.6055V64.8828C160.733 65.2214 159.594 65.3906 158.422 65.3906C154.464 65.3906 152.445 63.3919 152.367 59.3945V48.0078H149.281V43.8672H152.367V38.6719H158.012ZM174.496 65.3906C171.397 65.3906 168.871 64.4401 166.918 62.5391C164.978 60.638 164.008 58.1055 164.008 54.9414V54.3945C164.008 52.2721 164.418 50.3776 165.238 48.7109C166.059 47.0312 167.217 45.7422 168.715 44.8438C170.225 43.9323 171.944 43.4766 173.871 43.4766C176.762 43.4766 179.034 44.388 180.688 46.2109C182.354 48.0339 183.188 50.6185 183.188 53.9648V56.2695H169.73C169.913 57.6497 170.46 58.7565 171.371 59.5898C172.296 60.4232 173.461 60.8398 174.867 60.8398C177.042 60.8398 178.741 60.0521 179.965 58.4766L182.738 61.582C181.892 62.7799 180.746 63.7174 179.301 64.3945C177.855 65.0586 176.254 65.3906 174.496 65.3906ZM173.852 48.0469C172.732 48.0469 171.82 48.4245 171.117 49.1797C170.427 49.9349 169.984 51.0156 169.789 52.4219H177.641V51.9727C177.615 50.7227 177.276 49.7591 176.625 49.082C175.974 48.3919 175.049 48.0469 173.852 48.0469ZM174.359 35H180.512L175.102 41.0547H170.512L174.359 35ZM193.168 38.6719V43.8672H196.781V48.0078H193.168V58.5547C193.168 59.3359 193.318 59.8958 193.617 60.2344C193.917 60.5729 194.49 60.7422 195.336 60.7422C195.961 60.7422 196.514 60.6966 196.996 60.6055V64.8828C195.889 65.2214 194.75 65.3906 193.578 65.3906C189.62 65.3906 187.602 63.3919 187.523 59.3945V48.0078H184.438V43.8672H187.523V38.6719H193.168ZM205.883 65H200.219V43.8672H205.883V65ZM199.887 38.3984C199.887 37.5521 200.167 36.8555 200.727 36.3086C201.299 35.7617 202.074 35.4883 203.051 35.4883C204.014 35.4883 204.783 35.7617 205.355 36.3086C205.928 36.8555 206.215 37.5521 206.215 38.3984C206.215 39.2578 205.922 39.9609 205.336 40.5078C204.763 41.0547 204.001 41.3281 203.051 41.3281C202.1 41.3281 201.332 41.0547 200.746 40.5078C200.173 39.9609 199.887 39.2578 199.887 38.3984ZM219.34 60.8398C220.382 60.8398 221.228 60.5534 221.879 59.9805C222.53 59.4076 222.868 58.6458 222.895 57.6953H228.188C228.174 59.1276 227.784 60.4427 227.016 61.6406C226.247 62.8255 225.193 63.75 223.852 64.4141C222.523 65.0651 221.052 65.3906 219.438 65.3906C216.417 65.3906 214.034 64.4336 212.289 62.5195C210.544 60.5924 209.672 57.9362 209.672 54.5508V54.1797C209.672 50.9245 210.538 48.3268 212.27 46.3867C214.001 44.4466 216.378 43.4766 219.398 43.4766C222.042 43.4766 224.158 44.2318 225.746 45.7422C227.348 47.2396 228.161 49.2383 228.188 51.7383H222.895C222.868 50.6445 222.53 49.7591 221.879 49.082C221.228 48.3919 220.368 48.0469 219.301 48.0469C217.986 48.0469 216.99 48.5286 216.312 49.4922C215.648 50.4427 215.316 51.9922 215.316 54.1406V54.7266C215.316 56.901 215.648 58.4635 216.312 59.4141C216.977 60.3646 217.986 60.8398 219.34 60.8398ZM243.656 65C243.396 64.4922 243.207 63.8607 243.09 63.1055C241.723 64.6289 239.945 65.3906 237.758 65.3906C235.688 65.3906 233.969 64.7917 232.602 63.5938C231.247 62.3958 230.57 60.8854 230.57 59.0625C230.57 56.8229 231.397 55.1042 233.051 53.9062C234.717 52.7083 237.12 52.1029 240.258 52.0898H242.855V50.8789C242.855 49.9023 242.602 49.1211 242.094 48.5352C241.599 47.9492 240.811 47.6562 239.73 47.6562C238.78 47.6562 238.031 47.8841 237.484 48.3398C236.951 48.7956 236.684 49.4206 236.684 50.2148H231.039C231.039 48.9909 231.417 47.8581 232.172 46.8164C232.927 45.7747 233.995 44.9609 235.375 44.375C236.755 43.776 238.305 43.4766 240.023 43.4766C242.628 43.4766 244.691 44.1341 246.215 45.4492C247.751 46.7513 248.52 48.5872 248.52 50.957V60.1172C248.533 62.1224 248.812 63.6393 249.359 64.668V65H243.656ZM238.988 61.0742C239.822 61.0742 240.59 60.8919 241.293 60.5273C241.996 60.1497 242.517 59.6484 242.855 59.0234V55.3906H240.746C237.921 55.3906 236.417 56.3672 236.234 58.3203L236.215 58.6523C236.215 59.3555 236.462 59.9349 236.957 60.3906C237.452 60.8464 238.129 61.0742 238.988 61.0742Z" fill="white"/>
</svg>
