<svg width="333" height="100" viewBox="0 0 333 100" fill="none" xmlns="http://www.w3.org/2000/svg">
<path d="M80.1527 47.7773C79.7113 47.5234 79.2543 47.3008 78.7895 47.1016C79.5551 46.7383 80.3285 46.3477 81.1137 45.8945C86.3129 42.8945 86.9731 40.0391 86.0434 38.4297C84.0434 34.9648 79.8598 37.7227 76.7152 32.2695C74.9535 29.2266 75.9535 26.957 74.4457 24.3398C72.7621 21.4297 69.2152 19.2773 63.1527 22.7773C62.7113 23.0352 62.2895 23.3164 61.8871 23.6172C61.9535 22.7734 62.0004 21.9102 62.0004 21C62.0004 15 59.8598 13 58.0004 13C54.0004 13 54.2973 18 48.0004 18C44.4848 18 43.0199 16 40.0004 16C36.6371 16 33.0004 18 33.0004 25C33.0004 25.5117 33.0356 26.0156 33.0942 26.5156C32.3988 26.0352 31.6723 25.5625 30.8871 25.1094C25.6879 22.1094 22.8871 22.9609 21.9574 24.5703C19.9574 28.0352 24.4379 30.2773 21.2856 35.7305C19.5277 38.7773 17.0668 39.043 15.5551 41.6602C13.8715 44.5742 13.7856 48.7227 19.8481 52.2227C20.2895 52.4766 20.7465 52.6992 21.2113 52.8984C20.4457 53.2617 19.6723 53.6523 18.8871 54.1055C13.6879 57.1055 13.0277 59.9609 13.9574 61.5703C15.9574 65.0352 20.141 62.2773 23.2856 67.7305C25.0473 70.7734 24.0473 73.043 25.5551 75.6602C27.2387 78.5703 30.7856 80.7227 36.8481 77.2227C37.2895 76.9648 37.7113 76.6836 38.1137 76.3828C38.0473 77.2266 38.0004 78.0898 38.0004 79C38.0004 85 40.141 87 42.0004 87C46.0004 87 45.7035 82 52.0004 82C55.516 82 56.9809 84 60.0004 84C63.3637 84 67.0004 82 67.0004 75C67.0004 74.4883 66.9652 73.9844 66.9066 73.4844C67.602 73.9648 68.3285 74.4375 69.1137 74.8906C74.3129 77.8906 77.1137 77.0391 78.0434 75.4297C80.0434 71.9648 75.5629 69.7227 78.7152 64.2695C80.4731 61.2227 82.934 60.957 84.4457 58.3398C86.1293 55.4258 86.2152 51.2773 80.1527 47.7773Z" fill="#BA68C8"/>
<path d="M58 12C55.7969 12 54.5938 13.2695 53.5352 14.3906C52.2695 15.7344 51.0742 17 48 17C46.3789 17 45.2578 16.5234 44.0703 16.0234C42.8828 15.5195 41.6562 15 40 15C38.1484 15 32.1836 15.7188 32.0156 24.6289C32.7344 25.0625 33.4141 25.5078 34.0547 25.9609C34.0273 25.6406 34 25.3242 34 25C34 18.0391 37.7578 17 40 17C41.25 17 42.1953 17.3984 43.2891 17.8633C44.5469 18.3945 45.9727 19 48 19C51.9336 19 53.6289 17.207 54.9883 15.7656C55.957 14.7383 56.6562 14 58 14C59.3828 14 61 15.832 61 21C61 21.7266 60.9688 22.4219 60.9219 23.1055C60.8516 24.1602 60.7344 25.168 60.5742 26.1133C59.5 32.5586 56.7344 36.3555 56.6992 36.4023C56.3672 36.8437 56.4609 37.4688 56.9023 37.8008C57.3437 38.1289 57.9688 38.0391 58.3008 37.6016C58.4688 37.3711 62.0625 32.4688 62.8438 24.1719C62.9141 23.3906 62.9609 22.5742 62.9805 21.7344C62.9844 21.4883 63 21.25 63 21C63 14.3633 60.418 12 58 12Z" fill="#1F212B"/>
<path d="M20.3473 51.3555C14.3199 47.875 15.3004 44.1016 16.4215 42.1602C17.0465 41.0781 17.8629 40.4609 18.816 39.7422C19.9059 38.9219 21.1402 37.9883 22.152 36.2305C24.1207 32.8242 23.4137 30.4609 22.8473 28.5586C22.441 27.2109 22.152 26.2344 22.8238 25.0703C23.1715 24.4687 23.8707 24.1367 24.8473 24.1094C25.8668 24.0937 27.6324 24.3828 30.3863 25.9727C31.0152 26.3359 31.6012 26.7148 32.1715 27.0937C33.0504 27.6836 33.8629 28.2891 34.6051 28.8984C39.6442 33.0547 41.5504 37.3477 41.5699 37.3984C41.7887 37.9062 42.3785 38.1406 42.8863 37.9219C43.3902 37.7031 43.6285 37.1172 43.4098 36.6133C43.2965 36.3516 40.8473 30.7852 34.0504 25.9609C33.4098 25.5078 32.7301 25.0625 32.0152 24.6289C31.8004 24.5 31.6012 24.3672 31.3824 24.2422C28.8473 22.7773 26.6207 22.0781 24.7926 22.1094C22.5192 22.1719 21.4957 23.3672 21.0895 24.0703C19.984 25.9805 20.4879 27.6562 20.9293 29.1328C21.4567 30.9023 21.9527 32.5703 20.4176 35.2344C19.609 36.6367 18.6363 37.3711 17.609 38.1484C16.5777 38.9219 15.5152 39.7266 14.6871 41.1602C13.7613 42.7617 11.3863 48.293 19.0231 52.8945C19.7613 52.4883 20.4918 52.1211 21.2067 51.793C20.9176 51.6523 20.6285 51.5195 20.3473 51.3555Z" fill="#1F212B"/>
<path d="M36.3481 76.3555C33.8168 77.8164 31.6137 78.3281 29.8012 77.875C28.0512 77.4375 26.9965 76.1563 26.4223 75.1602C25.7973 74.0781 25.6723 73.0586 25.5239 71.8789C25.3559 70.5234 25.1684 68.9883 24.1528 67.2344C22.184 63.8242 19.7856 63.2539 17.8559 62.7969C16.4848 62.4727 15.4965 62.2344 14.8246 61.0703C14.1332 59.8711 14.9106 57.5547 19.3871 54.9727C20.0121 54.6094 20.6293 54.2891 21.2426 53.9883C22.1957 53.5234 23.1254 53.1211 24.0239 52.7852C30.1449 50.4922 34.8168 50.9922 34.8754 50.9961C35.4106 51.0625 35.9184 50.668 35.9848 50.1211C36.0512 49.5742 35.6606 49.0781 35.1098 49.0117C34.8285 48.9766 28.7856 48.3164 21.2074 51.7891C20.4926 52.1172 19.766 52.4883 19.0278 52.8945C18.8129 53.0117 18.602 53.1172 18.3832 53.2422C12.6371 56.5586 11.8832 59.9766 13.0903 62.0703C14.1918 63.9805 15.8949 64.3867 17.3949 64.7422C19.1879 65.168 20.8832 65.5703 22.4223 68.2305C23.2309 69.6367 23.3793 70.8438 23.5395 72.125C23.6996 73.4023 23.8598 74.7266 24.6879 76.1602C25.7895 78.0703 27.391 79.3359 29.3168 79.8164C29.9028 79.9609 30.5121 80.0352 31.141 80.0352C32.9301 80.0352 34.8989 79.4414 37.0199 78.2695C37.0356 77.4258 37.0824 76.6133 37.1567 75.832C36.891 76.0117 36.6293 76.1953 36.3481 76.3555Z" fill="#1F212B"/>
<path d="M66 74.9999C66 81.9608 62.2422 82.9999 60 82.9999C58.75 82.9999 57.8047 82.6015 56.7109 82.1366C55.4531 81.6054 54.0273 80.9999 52 80.9999C48.0664 80.9999 46.3711 82.7929 45.0117 84.2343C44.043 85.2616 43.3438 85.9999 42 85.9999C40.6172 85.9999 39 84.1679 39 78.9999C39 78.2733 39.0312 77.578 39.0781 76.8944C39.1484 75.8397 39.2656 74.8319 39.4258 73.8866C40.5 67.4413 43.2656 63.6444 43.3008 63.5976C43.6328 63.1561 43.5391 62.5311 43.0977 62.1991C42.6563 61.871 42.0312 61.9608 41.6992 62.3983C41.5312 62.6288 37.9375 67.5311 37.1562 75.828C37.0859 76.6132 37.0391 77.4257 37.0195 78.2694C37.0156 78.5155 37 78.7499 37 78.9999C37 85.6366 39.582 87.9999 42 87.9999C44.2031 87.9999 45.4062 86.7304 46.4648 85.6093C47.7305 84.2655 48.9258 82.9999 52 82.9999C53.6211 82.9999 54.7422 83.4765 55.9297 83.9765C57.1172 84.4804 58.3438 84.9999 60 84.9999C61.8516 84.9999 67.8164 84.2811 67.9844 75.371C67.2656 74.9374 66.5859 74.4921 65.9453 74.039C65.9727 74.3593 66 74.6757 66 74.9999Z" fill="#1F212B"/>
<path d="M80.9769 47.1094C80.2386 47.5156 79.512 47.8828 78.7972 48.2109C79.0862 48.3477 79.3714 48.4844 79.6527 48.6445C85.68 52.125 84.6995 55.8984 83.5784 57.8398C82.9534 58.9219 82.137 59.5391 81.1839 60.2578C80.0941 61.0781 78.8597 62.0117 77.848 63.7695C75.8792 67.1758 76.5862 69.5391 77.1527 71.4414C77.5589 72.7891 77.848 73.7656 77.1761 74.9297C76.8284 75.5312 76.1292 75.8633 75.1527 75.8906C74.1448 75.918 72.3675 75.6172 69.6136 74.0273C68.9847 73.6641 68.3987 73.2852 67.8284 72.9062C66.9495 72.3164 66.137 71.7109 65.3948 71.1016C60.3558 66.9453 58.4495 62.6523 58.43 62.6016C58.2112 62.0938 57.6175 61.8555 57.1136 62.0781C56.6097 62.2969 56.3714 62.8828 56.5902 63.3867C56.7034 63.6484 59.1527 69.2148 65.9495 74.0391C66.5902 74.4922 67.2698 74.9375 67.9847 75.3711C68.1995 75.5 68.3987 75.6328 68.6175 75.7578C71.0706 77.1758 73.223 77.8906 75.0277 77.8906C75.0902 77.8906 75.1487 77.8906 75.2073 77.8906C77.4808 77.8281 78.5042 76.6328 78.9105 75.9297C80.0159 74.0195 79.512 72.3437 79.0706 70.8672C78.5433 69.0977 78.0472 67.4297 79.5823 64.7656C80.3909 63.3633 81.3636 62.6289 82.3909 61.8516C83.4222 61.0781 84.4847 60.2734 85.3128 58.8398C86.2347 57.2383 88.6097 51.7109 80.9769 47.1094Z" fill="#1F212B"/>
<path d="M86.9102 37.9296C85.8047 36.0194 84.1054 35.6132 82.6054 35.2577C80.8124 34.8319 79.1133 34.4296 77.5781 31.7694C76.7695 30.3632 76.6171 29.1562 76.4608 27.8749C76.3007 26.5976 76.1367 25.2733 75.3125 23.8397C74.207 21.9296 72.6055 20.664 70.6836 20.1835C68.4375 19.621 65.8436 20.1522 62.9804 21.7343C62.9608 22.5741 62.9179 23.3905 62.8438 24.1718C63.1093 23.9882 63.3711 23.8046 63.6523 23.6444C66.1836 22.1835 68.3867 21.6718 70.1992 22.1249C71.9492 22.5624 73.0039 23.8437 73.5781 24.8397C74.2031 25.9218 74.3281 26.9413 74.4766 28.121C74.6445 29.4765 74.832 31.0116 75.8477 32.7655C77.8164 36.1757 80.2148 36.746 82.1445 37.203C83.5156 37.5272 84.5038 37.7655 85.1757 38.9296C85.8671 40.1288 85.0897 42.4452 80.6132 45.0272C79.9843 45.3905 79.3671 45.7108 78.7538 46.0116C77.8046 46.4804 76.875 46.8827 75.9766 47.2187C69.8555 49.5077 65.1835 49.0116 65.1288 49.0038C64.5897 48.9335 64.082 49.328 64.0156 49.8788C63.9531 50.4257 64.3438 50.9218 64.8906 50.9882C64.9727 50.9999 65.543 51.0624 66.4961 51.0624C68.8203 51.0624 73.4257 50.6757 78.7968 48.2108C79.5116 47.8827 80.2382 47.5155 80.9804 47.1093C81.1913 46.9921 81.4023 46.8827 81.6172 46.7577C87.3594 43.4413 88.1172 40.0194 86.9102 37.9296Z" fill="#1F212B"/>
<path d="M35.9332 45.2657C35.9176 45.2657 35.902 45.2657 35.8824 45.2618L28.5777 44.5118C28.3043 44.4806 28.1051 44.2384 28.1324 43.961C28.1598 43.6876 28.4059 43.4884 28.6832 43.5157L35.984 44.2696C36.2613 44.297 36.4605 44.5431 36.4332 44.8165C36.4059 45.0743 36.1871 45.2657 35.9332 45.2657Z" fill="#1F212B"/>
<path d="M37.0116 43C36.871 43 36.7343 42.9414 36.6366 42.832L31.3905 36.918C31.207 36.7109 31.2265 36.3945 31.4335 36.2109C31.6405 36.0273 31.953 36.0469 32.1405 36.2539L37.3827 42.168C37.5663 42.375 37.5507 42.6914 37.3437 42.875C37.246 42.9609 37.1288 43 37.0116 43Z" fill="#1F212B"/>
<path d="M61.5661 40.9374C61.4646 40.9374 61.3591 40.9061 61.2732 40.8397C61.0505 40.6796 60.9997 40.3671 61.1599 40.1444L65.4646 34.1952C65.6286 33.9686 65.9411 33.9218 66.1638 34.0819C66.3864 34.246 66.4372 34.5585 66.2732 34.7811L61.9724 40.7304C61.8708 40.8632 61.7185 40.9374 61.5661 40.9374Z" fill="#1F212B"/>
<path d="M62.9885 43.0002C62.758 43.0002 62.551 42.8361 62.5002 42.6018C62.4455 42.3283 62.6213 42.0666 62.8909 42.0119L70.6369 40.426C70.9065 40.3713 71.1721 40.5471 71.2268 40.8166C71.2815 41.0861 71.1057 41.3518 70.8362 41.4064L63.0901 42.9885C63.0588 42.9963 63.0237 43.0002 62.9885 43.0002Z" fill="#1F212B"/>
<path d="M71.3707 56.4884C71.3512 56.4884 71.3355 56.4845 71.316 56.4845L64.0152 55.7306C63.7379 55.7032 63.5387 55.4571 63.566 55.1837C63.5973 54.9064 63.8434 54.711 64.1168 54.7384L71.4215 55.4884C71.6949 55.5196 71.8941 55.7618 71.8668 56.0392C71.8395 56.297 71.6246 56.4884 71.3707 56.4884Z" fill="#1F212B"/>
<path d="M55.5 71.9998C55.3086 71.9998 55.125 71.8904 55.043 71.7029L52.043 65.0037C51.9297 64.7498 52.043 64.4529 52.2969 64.3435C52.5469 64.2264 52.8438 64.3435 52.957 64.5935L55.957 71.2967C56.0703 71.5467 55.957 71.8435 55.7031 71.9568C55.6367 71.9842 55.5664 71.9998 55.5 71.9998Z" fill="#1F212B"/>
<path d="M47.4997 72.9999C47.4489 72.9999 47.3942 72.9921 47.3435 72.9765C47.0778 72.8866 46.9372 72.6054 47.0271 72.3437L49.5271 64.8437C49.613 64.5819 49.8942 64.4374 50.156 64.5272C50.4216 64.6132 50.5622 64.8983 50.4724 65.1601L47.9724 72.6601C47.9021 72.8671 47.7106 72.9999 47.4997 72.9999Z" fill="#1F212B"/>
<path d="M34.1285 66.0116C34.027 66.0116 33.9254 65.9803 33.8395 65.9178C33.6129 65.7576 33.5621 65.4412 33.7262 65.2185L38.0309 59.2732C38.191 59.0467 38.5035 58.9998 38.7262 59.1599C38.9527 59.3201 39.0035 59.6366 38.8395 59.8593L34.5348 65.8046C34.4371 65.9413 34.2848 66.0116 34.1285 66.0116Z" fill="#1F212B"/>
<path d="M47.5 35.7031C47.3086 35.7031 47.125 35.5937 47.043 35.4062L44.043 28.7031C43.9297 28.4531 44.043 28.1562 44.2969 28.043C44.5469 27.9297 44.8438 28.043 44.957 28.2969L47.957 34.9961C48.0703 35.25 47.957 35.5469 47.7031 35.6562C47.6367 35.6875 47.5664 35.7031 47.5 35.7031Z" fill="#1F212B"/>
<path d="M52.1678 28.9999C52.1131 28.9999 52.0623 28.9921 52.0076 28.9765C51.7459 28.8866 51.6053 28.6054 51.6912 28.3437L52.0272 27.3437C52.1131 27.0819 52.3943 26.9374 52.6561 27.0272C52.9217 27.1132 53.0623 27.3983 52.9725 27.6601L52.6404 28.6601C52.5701 28.8671 52.3748 28.9999 52.1678 28.9999Z" fill="#1F212B"/>
<path d="M49.9997 35.5002C49.9489 35.5002 49.8942 35.4924 49.8435 35.4768C49.5778 35.3869 49.4372 35.1057 49.5271 34.844L51.0271 30.344C51.113 30.0783 51.3942 29.9377 51.656 30.0276C51.9216 30.1135 52.0622 30.3986 51.9724 30.6604L50.4724 35.1604C50.4021 35.3674 50.2106 35.5002 49.9997 35.5002Z" fill="#1F212B"/>
<path d="M29.2658 59.5857C29.0314 59.5857 28.8243 59.4217 28.7736 59.1873C28.7189 58.9139 28.8947 58.6522 29.1642 58.5936L30.3986 58.3436C30.6681 58.2889 30.9337 58.4607 30.9884 58.7303C31.047 59.0037 30.8712 59.2654 30.6017 59.324L29.3634 59.574C29.3322 59.5818 29.297 59.5857 29.2658 59.5857Z" fill="#1F212B"/>
<path d="M64.7656 60C64.625 60 64.4883 59.9414 64.3906 59.832L62.6172 57.832C62.4336 57.625 62.4531 57.3086 62.6602 57.125C62.8633 56.9414 63.1797 56.9609 63.3633 57.168L65.1367 59.168C65.3203 59.375 65.3047 59.6914 65.0977 59.875C65 59.9609 64.8828 60 64.7656 60Z" fill="#1F212B"/>
<path d="M68.2344 63.9141C68.0977 63.9141 67.961 63.8594 67.8594 63.7461L67.0508 62.832C66.8672 62.625 66.8867 62.3086 67.0938 62.125C67.2969 61.9414 67.6133 61.9609 67.7969 62.168L68.6094 63.082C68.793 63.2891 68.7735 63.6055 68.5664 63.7891C68.4727 63.875 68.3555 63.9141 68.2344 63.9141Z" fill="#1F212B"/>
<path d="M33.4996 58.7189C33.2691 58.7189 33.0582 58.5548 33.0113 58.3204C32.9527 58.047 33.1285 57.7853 33.402 57.7267L36.9098 57.0118C37.1793 56.9532 37.4449 57.129 37.4996 57.3985C37.5582 57.672 37.3824 57.9337 37.109 57.9923L33.6012 58.711C33.566 58.7149 33.5309 58.7189 33.4996 58.7189Z" fill="#1F212B"/>
<path d="M65 50C65 58.2852 58.2852 65 50 65C41.7148 65 35 58.2852 35 50C35 41.7148 41.7148 35 50 35C58.2852 35 65 41.7148 65 50Z" fill="#F8E55B"/>
<path d="M59.5 50C59.5 55.2461 55.2461 59.5 50 59.5C44.7539 59.5 40.5 55.2461 40.5 50C40.5 44.7539 44.7539 40.5 50 40.5C55.2461 40.5 59.5 44.7539 59.5 50Z" fill="#FEF6AA"/>
<path d="M50 60C44.4844 60 40 55.5156 40 50C40 44.4844 44.4844 40 50 40C55.5156 40 60 44.4844 60 50C60 55.5156 55.5156 60 50 60ZM50 41C45.0391 41 41 45.0352 41 50C41 54.9648 45.0391 59 50 59C54.9609 59 59 54.9648 59 50C59 45.0352 54.9609 41 50 41Z" fill="#1F212B"/>
<path d="M50 66C41.1797 66 34 58.8203 34 50C34 41.1797 41.1797 34 50 34C58.8203 34 66 41.1797 66 50C66 58.8203 58.8203 66 50 66ZM50 36C42.2812 36 36 42.2812 36 50C36 57.7188 42.2812 64 50 64C57.7188 64 64 57.7188 64 50C64 42.2812 57.7188 36 50 36Z" fill="#1F212B"/>
<path d="M53.156 46.0002C53.0583 46.0002 52.9567 45.9729 52.8669 45.9104C52.6794 45.7775 52.4802 45.6565 52.2732 45.551C52.0271 45.426 51.9294 45.1213 52.0544 44.8791C52.1794 44.633 52.4841 44.5354 52.7263 44.6604C52.9763 44.7893 53.2146 44.9299 53.445 45.09C53.6716 45.2502 53.7224 45.5627 53.5661 45.7854C53.4685 45.926 53.3122 46.0002 53.156 46.0002Z" fill="#1F212B"/>
<path d="M55.4725 50.0002C55.2185 50.0002 54.9998 49.8049 54.9764 49.5471C54.9178 48.9104 54.742 48.301 54.449 47.7268C54.324 47.4846 54.4217 47.1799 54.6639 47.0549C54.9139 46.9299 55.2146 47.0275 55.3396 47.2736C55.6912 47.9611 55.9021 48.6955 55.9725 49.4572C55.9959 49.7307 55.7928 49.9768 55.5193 50.0002C55.5037 50.0002 55.4881 50.0002 55.4725 50.0002Z" fill="#1F212B"/>
<path d="M50 56C46.6914 56 44 53.3086 44 50C44 46.6914 46.6914 44 50 44C50.1836 44 50.3633 44.0117 50.543 44.0273C50.8203 44.0508 51.0234 44.2969 50.9961 44.5703C50.9727 44.8438 50.7344 45.0469 50.457 45.0234C50.3047 45.0117 50.1523 45 50 45C47.2422 45 45 47.2422 45 50C45 52.7578 47.2422 55 50 55C51.4727 55 52.8672 54.3359 53.8242 53.1836C54 52.9687 54.3125 52.9375 54.5273 53.1133C54.7383 53.293 54.7695 53.6055 54.5938 53.8203C53.4492 55.2031 51.7734 56 50 56Z" fill="#1F212B"/>
<path d="M112.736 52.7568H104.299V58.4697H114.201V62H99.9043V40.6719H114.172V44.2314H104.299V49.3145H112.736V52.7568ZM125.085 57.6201C125.085 57.1025 124.826 56.6973 124.309 56.4043C123.801 56.1016 122.98 55.833 121.848 55.5986C118.078 54.8076 116.193 53.2061 116.193 50.7939C116.193 49.3877 116.774 48.2158 117.937 47.2783C119.108 46.3311 120.637 45.8574 122.521 45.8574C124.533 45.8574 126.14 46.3311 127.341 47.2783C128.552 48.2256 129.157 49.4561 129.157 50.9697H124.924C124.924 50.3643 124.729 49.8662 124.338 49.4756C123.947 49.0752 123.337 48.875 122.507 48.875C121.794 48.875 121.242 49.0361 120.852 49.3584C120.461 49.6807 120.266 50.0908 120.266 50.5889C120.266 51.0576 120.485 51.4385 120.925 51.7314C121.374 52.0146 122.126 52.2637 123.181 52.4785C124.235 52.6836 125.124 52.918 125.847 53.1816C128.083 54.002 129.201 55.4229 129.201 57.4443C129.201 58.8896 128.581 60.0615 127.341 60.96C126.101 61.8486 124.499 62.293 122.536 62.293C121.208 62.293 120.026 62.0586 118.991 61.5898C117.966 61.1113 117.16 60.4619 116.574 59.6416C115.988 58.8115 115.695 57.918 115.695 56.9609H119.709C119.748 57.7129 120.026 58.2891 120.544 58.6895C121.062 59.0898 121.755 59.29 122.624 59.29C123.435 59.29 124.045 59.1387 124.455 58.8359C124.875 58.5234 125.085 58.1182 125.085 57.6201ZM137.009 42.2539V46.1504H139.719V49.2559H137.009V57.166C137.009 57.752 137.121 58.1719 137.346 58.4258C137.57 58.6797 138 58.8066 138.635 58.8066C139.104 58.8066 139.519 58.7725 139.88 58.7041V61.9121C139.05 62.166 138.195 62.293 137.316 62.293C134.348 62.293 132.834 60.7939 132.775 57.7959V49.2559H130.461V46.1504H132.775V42.2539H137.009ZM149.372 62.293C147.048 62.293 145.153 61.5801 143.688 60.1543C142.233 58.7285 141.506 56.8291 141.506 54.4561V54.0459C141.506 52.4541 141.813 51.0332 142.429 49.7832C143.044 48.5234 143.913 47.5566 145.036 46.8828C146.169 46.1992 147.458 45.8574 148.903 45.8574C151.071 45.8574 152.775 46.541 154.016 47.9082C155.266 49.2754 155.891 51.2139 155.891 53.7236V55.4521H145.798C145.935 56.4873 146.345 57.3174 147.028 57.9424C147.722 58.5674 148.596 58.8799 149.65 58.8799C151.281 58.8799 152.556 58.2891 153.474 57.1074L155.554 59.4365C154.919 60.335 154.06 61.0381 152.976 61.5459C151.892 62.0439 150.69 62.293 149.372 62.293ZM148.889 49.2852C148.049 49.2852 147.365 49.5684 146.838 50.1348C146.32 50.7012 145.988 51.5117 145.842 52.5664H151.73V52.2295C151.711 51.292 151.457 50.5693 150.969 50.0615C150.48 49.5439 149.787 49.2852 148.889 49.2852ZM149.27 39.5H153.884L149.826 44.041H146.384L149.27 39.5ZM163.376 42.2539V46.1504H166.086V49.2559H163.376V57.166C163.376 57.752 163.488 58.1719 163.713 58.4258C163.938 58.6797 164.367 58.8066 165.002 58.8066C165.471 58.8066 165.886 58.7725 166.247 58.7041V61.9121C165.417 62.166 164.562 62.293 163.684 62.293C160.715 62.293 159.201 60.7939 159.143 57.7959V49.2559H156.828V46.1504H159.143V42.2539H163.376ZM172.912 62H168.664V46.1504H172.912V62ZM168.415 42.0488C168.415 41.4141 168.625 40.8916 169.045 40.4814C169.475 40.0713 170.056 39.8662 170.788 39.8662C171.511 39.8662 172.087 40.0713 172.517 40.4814C172.946 40.8916 173.161 41.4141 173.161 42.0488C173.161 42.6934 172.941 43.2207 172.502 43.6309C172.072 44.041 171.501 44.2461 170.788 44.2461C170.075 44.2461 169.499 44.041 169.06 43.6309C168.63 43.2207 168.415 42.6934 168.415 42.0488ZM183.005 58.8799C183.786 58.8799 184.421 58.665 184.909 58.2354C185.397 57.8057 185.651 57.2344 185.671 56.5215H189.641C189.631 57.5957 189.338 58.582 188.762 59.4805C188.186 60.3691 187.395 61.0625 186.389 61.5605C185.393 62.0488 184.289 62.293 183.078 62.293C180.812 62.293 179.025 61.5752 177.717 60.1396C176.408 58.6943 175.754 56.7021 175.754 54.1631V53.8848C175.754 51.4434 176.403 49.4951 177.702 48.04C179.001 46.585 180.783 45.8574 183.049 45.8574C185.031 45.8574 186.618 46.4238 187.81 47.5566C189.011 48.6797 189.621 50.1787 189.641 52.0537H185.671C185.651 51.2334 185.397 50.5693 184.909 50.0615C184.421 49.5439 183.776 49.2852 182.976 49.2852C181.989 49.2852 181.242 49.6465 180.734 50.3691C180.236 51.082 179.987 52.2441 179.987 53.8555V54.2949C179.987 55.9258 180.236 57.0977 180.734 57.8105C181.232 58.5234 181.989 58.8799 183.005 58.8799ZM201.242 62C201.047 61.6191 200.905 61.1455 200.817 60.5791C199.792 61.7217 198.459 62.293 196.818 62.293C195.266 62.293 193.977 61.8438 192.951 60.9453C191.936 60.0469 191.428 58.9141 191.428 57.5469C191.428 55.8672 192.048 54.5781 193.288 53.6797C194.538 52.7812 196.34 52.3271 198.693 52.3174H200.642V51.4092C200.642 50.6768 200.451 50.0908 200.07 49.6514C199.699 49.2119 199.108 48.9922 198.298 48.9922C197.585 48.9922 197.023 49.1631 196.613 49.5049C196.213 49.8467 196.013 50.3154 196.013 50.9111H191.779C191.779 49.9932 192.062 49.1436 192.629 48.3623C193.195 47.5811 193.996 46.9707 195.031 46.5312C196.066 46.082 197.229 45.8574 198.518 45.8574C200.471 45.8574 202.019 46.3506 203.161 47.3369C204.313 48.3135 204.89 49.6904 204.89 51.4678V58.3379C204.899 59.8418 205.109 60.9795 205.52 61.751V62H201.242ZM197.741 59.0557C198.366 59.0557 198.942 58.9189 199.47 58.6455C199.997 58.3623 200.388 57.9863 200.642 57.5176V54.793H199.06C196.94 54.793 195.812 55.5254 195.676 56.9902L195.661 57.2393C195.661 57.7666 195.847 58.2012 196.218 58.543C196.589 58.8848 197.097 59.0557 197.741 59.0557ZM223.786 54.1924H220.285V62H215.891V40.6719H223.815C226.335 40.6719 228.278 41.2334 229.646 42.3564C231.013 43.4795 231.696 45.0664 231.696 47.1172C231.696 48.5723 231.379 49.7881 230.744 50.7646C230.119 51.7314 229.167 52.5029 227.888 53.0791L232.502 61.7949V62H227.785L223.786 54.1924ZM220.285 50.6328H223.83C224.934 50.6328 225.788 50.3545 226.394 49.7979C226.999 49.2314 227.302 48.4551 227.302 47.4688C227.302 46.4629 227.014 45.6719 226.438 45.0957C225.871 44.5195 224.997 44.2314 223.815 44.2314H220.285V50.6328ZM238.903 47.8789C240.026 46.5312 241.438 45.8574 243.137 45.8574C246.574 45.8574 248.317 47.8545 248.366 51.8486V62H244.133V51.9658C244.133 51.0576 243.938 50.3887 243.547 49.959C243.156 49.5195 242.507 49.2998 241.599 49.2998C240.358 49.2998 239.46 49.7783 238.903 50.7354V62H234.67V39.5H238.903V47.8789ZM250.9 53.9287C250.9 52.3564 251.203 50.9551 251.809 49.7246C252.414 48.4941 253.283 47.542 254.416 46.8682C255.559 46.1943 256.882 45.8574 258.386 45.8574C260.524 45.8574 262.268 46.5117 263.615 47.8203C264.973 49.1289 265.729 50.9062 265.886 53.1523L265.915 54.2363C265.915 56.668 265.236 58.6211 263.879 60.0957C262.521 61.5605 260.7 62.293 258.415 62.293C256.13 62.293 254.304 61.5605 252.937 60.0957C251.579 58.6309 250.9 56.6387 250.9 54.1191V53.9287ZM255.134 54.2363C255.134 55.7402 255.417 56.8926 255.983 57.6934C256.55 58.4844 257.36 58.8799 258.415 58.8799C259.44 58.8799 260.241 58.4893 260.817 57.708C261.394 56.917 261.682 55.6572 261.682 53.9287C261.682 52.4541 261.394 51.3115 260.817 50.501C260.241 49.6904 259.431 49.2852 258.386 49.2852C257.351 49.2852 256.55 49.6904 255.983 50.501C255.417 51.3018 255.134 52.5469 255.134 54.2363ZM277.707 62C277.512 61.6191 277.37 61.1455 277.282 60.5791C276.257 61.7217 274.924 62.293 273.283 62.293C271.73 62.293 270.441 61.8438 269.416 60.9453C268.4 60.0469 267.893 58.9141 267.893 57.5469C267.893 55.8672 268.513 54.5781 269.753 53.6797C271.003 52.7812 272.805 52.3271 275.158 52.3174H277.106V51.4092C277.106 50.6768 276.916 50.0908 276.535 49.6514C276.164 49.2119 275.573 48.9922 274.763 48.9922C274.05 48.9922 273.488 49.1631 273.078 49.5049C272.678 49.8467 272.478 50.3154 272.478 50.9111H268.244C268.244 49.9932 268.527 49.1436 269.094 48.3623C269.66 47.5811 270.461 46.9707 271.496 46.5312C272.531 46.082 273.693 45.8574 274.982 45.8574C276.936 45.8574 278.483 46.3506 279.626 47.3369C280.778 48.3135 281.354 49.6904 281.354 51.4678V58.3379C281.364 59.8418 281.574 60.9795 281.984 61.751V62H277.707ZM274.206 59.0557C274.831 59.0557 275.407 58.9189 275.935 58.6455C276.462 58.3623 276.853 57.9863 277.106 57.5176V54.793H275.524C273.405 54.793 272.277 55.5254 272.141 56.9902L272.126 57.2393C272.126 57.7666 272.312 58.2012 272.683 58.543C273.054 58.8848 273.562 59.0557 274.206 59.0557ZM283.947 53.958C283.947 51.4873 284.499 49.5195 285.603 48.0547C286.716 46.5898 288.234 45.8574 290.158 45.8574C291.701 45.8574 292.976 46.4336 293.981 47.5859V39.5H298.229V62H294.406L294.201 60.3154C293.146 61.6338 291.789 62.293 290.129 62.293C288.264 62.293 286.765 61.5605 285.632 60.0957C284.509 58.6211 283.947 56.5752 283.947 53.958ZM288.181 54.2656C288.181 55.75 288.439 56.8877 288.957 57.6787C289.475 58.4697 290.227 58.8652 291.213 58.8652C292.521 58.8652 293.444 58.3135 293.981 57.21V50.9551C293.454 49.8516 292.541 49.2998 291.242 49.2998C289.201 49.2998 288.181 50.9551 288.181 54.2656ZM308.806 62.293C306.481 62.293 304.587 61.5801 303.122 60.1543C301.667 58.7285 300.939 56.8291 300.939 54.4561V54.0459C300.939 52.4541 301.247 51.0332 301.862 49.7832C302.478 48.5234 303.347 47.5566 304.47 46.8828C305.603 46.1992 306.892 45.8574 308.337 45.8574C310.505 45.8574 312.209 46.541 313.449 47.9082C314.699 49.2754 315.324 51.2139 315.324 53.7236V55.4521H305.231C305.368 56.4873 305.778 57.3174 306.462 57.9424C307.155 58.5674 308.029 58.8799 309.084 58.8799C310.715 58.8799 311.989 58.2891 312.907 57.1074L314.987 59.4365C314.353 60.335 313.493 61.0381 312.409 61.5459C311.325 62.0439 310.124 62.293 308.806 62.293ZM308.322 49.2852C307.482 49.2852 306.799 49.5684 306.271 50.1348C305.754 50.7012 305.422 51.5117 305.275 52.5664H311.164V52.2295C311.145 51.292 310.891 50.5693 310.402 50.0615C309.914 49.5439 309.221 49.2852 308.322 49.2852ZM326.325 57.6201C326.325 57.1025 326.066 56.6973 325.549 56.4043C325.041 56.1016 324.221 55.833 323.088 55.5986C319.318 54.8076 317.434 53.2061 317.434 50.7939C317.434 49.3877 318.015 48.2158 319.177 47.2783C320.349 46.3311 321.877 45.8574 323.762 45.8574C325.773 45.8574 327.38 46.3311 328.581 47.2783C329.792 48.2256 330.397 49.4561 330.397 50.9697H326.164C326.164 50.3643 325.969 49.8662 325.578 49.4756C325.188 49.0752 324.577 48.875 323.747 48.875C323.034 48.875 322.482 49.0361 322.092 49.3584C321.701 49.6807 321.506 50.0908 321.506 50.5889C321.506 51.0576 321.726 51.4385 322.165 51.7314C322.614 52.0146 323.366 52.2637 324.421 52.4785C325.476 52.6836 326.364 52.918 327.087 53.1816C329.323 54.002 330.441 55.4229 330.441 57.4443C330.441 58.8896 329.821 60.0615 328.581 60.96C327.341 61.8486 325.739 62.293 323.776 62.293C322.448 62.293 321.267 62.0586 320.231 61.5898C319.206 61.1113 318.4 60.4619 317.814 59.6416C317.229 58.8115 316.936 57.918 316.936 56.9609H320.949C320.988 57.7129 321.267 58.2891 321.784 58.6895C322.302 59.0898 322.995 59.29 323.864 59.29C324.675 59.29 325.285 59.1387 325.695 58.8359C326.115 58.5234 326.325 58.1182 326.325 57.6201Z" fill="white"/>
</svg>
