<svg xmlns="http://www.w3.org/2000/svg" width="250" height="250" viewBox="0 0 250 250"><g id="surface33060305"><path style="stroke:none;fill-rule:nonzero;fill:#fff;fill-opacity:1" d="M 130 15 C 106.410156 15 78.917969 22.546875 56.394531 30.351562 C 33.875 38.15625 16.949219 46.003906 13.449219 47.824219 C 1.257812 54.175781 -3.53125 69.359375 2.824219 81.550781 C 9.175781 93.742188 24.359375 98.523438 36.550781 92.167969 C 42.125 89.265625 61.75 77.632812 84.265625 66.433594 C 106.785156 55.238281 132.367188 45 145 45 C 197.574219 45 241.679688 83.738281 241.679688 83.738281 C 243.671875 85.492188 246.6875 85.382812 248.546875 83.492188 C 250.40625 81.601562 250.464844 78.585938 248.679688 76.621094 C 248.679688 76.621094 248.328125 76.269531 248.320312 76.257812 C 247.296875 75.125 192.738281 15 130 15 Z M 130 25 C 149.019531 25 166.921875 32.257812 183.496094 40.996094 C 171.601562 37.433594 158.664062 35 145 35 C 127.632812 35 102.730469 46.085938 79.816406 57.480469 C 56.898438 68.875 36.15625 81.101562 31.933594 83.300781 C 24.535156 87.15625 15.546875 84.332031 11.691406 76.933594 C 7.832031 69.535156 10.667969 60.546875 18.066406 56.6875 C 19.980469 55.695312 37.675781 47.425781 59.667969 39.804688 C 81.667969 32.179688 108.589844 25 130 25 Z M 125 95 C 54.148438 95 18.175781 158.015625 16.015625 161.914062 C 16.011719 161.917969 16 161.9375 15.996094 161.941406 C 14.433594 163.890625 14.546875 166.691406 16.261719 168.503906 C 19.625 174.46875 55.464844 235 125 235 C 194.476562 235 230.3125 174.574219 233.730469 168.527344 C 235.476562 166.699219 235.582031 163.859375 233.984375 161.90625 C 233.980469 161.902344 233.976562 161.898438 233.972656 161.894531 C 231.757812 157.898438 195.792969 95 125 95 Z M 125 105 C 169.089844 105 198.125 131.207031 212.890625 149.179688 C 202.566406 143.777344 189 137.558594 173.320312 132.773438 C 158.609375 128.261719 142.089844 125 125 125 C 107.910156 125 91.390625 128.261719 76.679688 132.773438 C 61 137.558594 47.433594 143.777344 37.109375 149.179688 C 51.875 131.207031 80.910156 105 125 105 Z M 108.632812 136.144531 C 103.160156 140.882812 100.011719 147.761719 100 155 C 100 168.808594 111.191406 180 125 180 C 138.808594 180 150 168.808594 150 155 C 149.992188 147.769531 146.855469 140.894531 141.394531 136.152344 C 150.59375 137.285156 159.527344 139.199219 167.9375 141.660156 C 169.261719 145.878906 170 150.320312 170 155 C 170 179.894531 149.894531 200 125 200 C 100.105469 200 80 179.894531 80 155 C 80 150.320312 80.738281 145.878906 82.058594 141.660156 C 90.484375 139.195312 99.425781 137.273438 108.632812 136.140625 Z M 70.859375 145.300781 C 70.296875 148.453125 70 151.691406 70 155 C 70 185.304688 94.695312 210 125 210 C 155.304688 210 180 185.304688 180 155 C 180 151.691406 179.703125 148.453125 179.140625 145.300781 C 200.015625 152.738281 216.128906 162.074219 223.136719 166.496094 C 217.171875 176.457031 185.222656 225 125 225 C 64.777344 225 32.828125 176.457031 26.863281 166.496094 C 33.871094 162.074219 49.984375 152.738281 70.859375 145.300781 Z M 70.859375 145.300781"/></g></svg>